<?xml version="1.0" standalone="no"?>
<!DOCTYPE svg PUBLIC "-//W3C//DTD SVG 20010904//EN"
 "http://www.w3.org/TR/2001/REC-SVG-20010904/DTD/svg10.dtd">
<svg version="1.0" xmlns="http://www.w3.org/2000/svg"
 width="1200.000000pt" height="1200.000000pt" viewBox="0 0 1200.000000 1200.000000"
 preserveAspectRatio="xMidYMid meet">
<metadata>
Created by potrace 1.11, written by Peter Selinger 2001-2013
</metadata>
<g transform="translate(0.000000,1200.000000) scale(0.100000,-0.100000)"
fill="#000000" stroke="none">
<path d="M4579 10536 c-2 -2 -56 -7 -119 -10 -115 -7 -131 -9 -225 -22 -27 -4
-61 -8 -75 -9 -88 -9 -252 -39 -395 -71 -60 -14 -121 -27 -135 -30 -14 -3 -34
-8 -45 -11 -11 -4 -25 -8 -31 -9 -27 -5 -139 -38 -269 -81 -452 -147 -900
-372 -1284 -646 -289 -207 -528 -421 -787 -707 -50 -56 -238 -292 -262 -328
-9 -15 -19 -29 -23 -32 -14 -12 -166 -250 -229 -359 -82 -143 -184 -351 -235
-476 -20 -49 -40 -99 -46 -110 -12 -26 -98 -273 -104 -299 -2 -12 -18 -70 -35
-131 -17 -60 -32 -119 -34 -130 -2 -11 -9 -40 -15 -65 -5 -25 -12 -56 -15 -70
-2 -14 -9 -48 -15 -75 -5 -28 -12 -73 -15 -100 -3 -28 -8 -59 -10 -70 -4 -19
-12 -92 -21 -180 -16 -158 -22 -507 -11 -620 3 -27 8 -86 11 -130 7 -89 7 -96
30 -250 9 -60 20 -126 25 -145 5 -19 11 -51 14 -70 4 -30 24 -118 41 -183 3
-9 7 -26 9 -36 13 -60 54 -193 98 -321 138 -399 344 -794 597 -1145 70 -97
206 -271 231 -295 8 -8 41 -45 72 -81 98 -114 282 -293 432 -423 423 -363 915
-651 1441 -841 170 -62 454 -147 565 -169 235 -48 248 -51 313 -61 17 -3 43
-7 57 -10 32 -6 90 -13 163 -20 32 -4 67 -8 78 -10 137 -27 848 -27 1021 0 13
2 48 6 78 10 92 10 120 15 245 37 66 11 129 22 140 24 11 1 29 5 40 8 11 2 70
16 131 30 233 54 543 155 773 252 100 43 386 182 451 220 25 14 81 46 125 71
555 317 1106 835 1472 1383 128 192 331 559 358 648 3 12 12 23 18 23 7 1 244
2 528 3 l517 1 -18 -35 c-65 -131 -60 -290 14 -427 136 -250 509 -327 746
-154 42 31 27 17 191 172 184 174 208 197 360 339 327 306 370 359 399 483 36
158 -22 341 -145 450 -11 10 -81 76 -155 147 -74 70 -151 142 -170 160 -19 18
-96 90 -170 160 -190 180 -213 201 -266 249 -197 176 -517 171 -707 -12 -140
-134 -181 -338 -104 -519 l16 -38 -371 0 -370 0 6 53 c3 28 8 63 11 77 2 13 7
56 11 95 3 38 8 72 9 75 8 13 19 269 18 425 0 150 -8 332 -18 420 -2 17 -7 57
-11 90 -3 33 -8 69 -10 80 -2 10 -6 37 -9 60 -3 22 -10 65 -16 95 -6 30 -13
68 -15 84 -3 16 -21 90 -40 165 -19 75 -36 145 -39 157 -3 11 -25 83 -51 160
-93 282 -233 592 -372 824 -12 19 -29 49 -38 65 -31 56 -173 263 -249 365
-159 211 -426 500 -606 655 -45 39 -87 75 -93 80 -6 6 -45 38 -86 71 -580 465
-1278 793 -2015 947 -66 14 -138 28 -160 31 -23 4 -52 8 -65 11 -14 3 -36 7
-50 9 -14 3 -45 7 -70 10 -25 3 -83 10 -130 16 -47 5 -116 13 -155 16 -80 6
-640 15 -646 10z m445 -2670 c119 -31 257 -96 346 -164 103 -78 214 -205 267
-305 8 -16 17 -11 74 45 153 150 303 251 509 341 70 30 240 79 323 91 20 3 54
9 75 12 20 4 102 7 182 7 115 0 164 -4 235 -22 303 -73 547 -251 663 -485 84
-170 99 -385 43 -616 -7 -25 -13 -53 -16 -62 -2 -10 -41 -109 -86 -220 -44
-112 -107 -268 -139 -348 -139 -351 -162 -406 -171 -425 -26 -57 -128 -319
-124 -323 2 -2 490 -4 1085 -4 l1081 -1 -6 -44 c-8 -63 -52 -268 -71 -333 -9
-30 -17 -62 -19 -70 -2 -8 -8 -27 -14 -42 -6 -16 -9 -28 -6 -28 5 0 -84 -263
-124 -367 -29 -75 -35 -83 -59 -84 -157 -4 -2512 0 -2554 5 -185 22 -372 138
-457 285 -109 188 -91 410 63 790 35 86 112 275 171 421 59 146 135 335 170
420 81 202 86 216 90 300 5 92 -15 159 -62 211 -60 66 -103 83 -208 83 -184
-1 -332 -65 -479 -208 -182 -178 -275 -320 -376 -576 -22 -58 -47 -118 -54
-135 -8 -16 -53 -127 -100 -245 -48 -118 -91 -224 -96 -235 -5 -11 -62 -150
-126 -310 -64 -159 -130 -319 -146 -354 -83 -179 -222 -351 -339 -420 -79 -47
-159 -76 -237 -87 -181 -24 -306 12 -416 120 -96 96 -125 188 -104 339 17 127
22 142 163 497 64 162 128 324 142 360 14 36 29 74 34 85 5 11 36 90 69 175
33 85 64 164 69 175 5 11 20 49 34 85 14 36 48 121 75 190 85 214 98 319 48
405 -27 45 -84 91 -147 117 -79 34 -259 18 -374 -33 -105 -46 -253 -178 -334
-298 -51 -75 -138 -241 -171 -326 -13 -33 -29 -73 -36 -90 -7 -16 -56 -136
-109 -265 -52 -129 -100 -244 -105 -255 -5 -11 -75 -182 -156 -380 -196 -480
-235 -555 -359 -692 -167 -185 -426 -262 -635 -188 -144 51 -256 178 -278 316
-19 123 5 220 138 545 56 137 126 310 156 384 30 74 59 144 64 155 10 21 82
197 130 320 30 76 145 358 159 390 5 11 33 79 62 150 86 214 143 354 273 669
126 304 238 435 431 501 59 20 221 28 285 14 161 -36 313 -180 345 -328 4 -18
10 -29 14 -24 12 19 171 142 260 202 183 123 354 192 513 207 40 3 74 7 76 9
1 1 64 1 140 -1 108 -2 158 -8 236 -28z"/>
</g>
</svg>
