<svg xmlns="http://www.w3.org/2000/svg" viewBox="0 0 86.85 8.38"><defs><style>.cls-1{fill:#fff;}</style></defs><title>Asset 5</title><g id="Layer_2" data-name="Layer 2"><g id="Layer_5" data-name="Layer 5"><path class="cls-1" d="M7,5.16c0-1-.07-2.15-.07-3.32h0C6.66,2.87,6.32,4,6,5L5,8.12H3.6L2.73,5C2.47,4,2.19,2.89,2,1.83H2c0,1.09-.08,2.34-.14,3.35L1.69,8.25H0L.52.17H3l.79,2.7c.25.94.5,1.94.68,2.89h0c.23-.94.5-2,.77-2.9L6.09.17H8.48l.44,8.08H7.14Z"/><path class="cls-1" d="M13.64,8.25l-.11-.59h0a2.11,2.11,0,0,1-1.68.72,1.8,1.8,0,0,1-1.9-1.8c0-1.52,1.37-2.25,3.44-2.24V4.26c0-.31-.17-.75-1.07-.75a3.29,3.29,0,0,0-1.62.44l-.34-1.18a4.85,4.85,0,0,1,2.28-.52A2.28,2.28,0,0,1,15.2,4.78v2a9.07,9.07,0,0,0,.08,1.43Zm-.22-2.77c-1,0-1.7.22-1.7.92a.65.65,0,0,0,.72.7,1,1,0,0,0,.95-.67,1.31,1.31,0,0,0,0-.31Z"/><path class="cls-1" d="M18.59.71V2.38h1.31V3.73H18.59V5.85c0,.71.17,1,.72,1a3,3,0,0,0,.54,0V8.21a3.58,3.58,0,0,1-1.19.16,1.9,1.9,0,0,1-1.37-.5,2.43,2.43,0,0,1-.5-1.74V3.73H16V2.38h.78V1.11Z"/><path class="cls-1" d="M20.94,6.66a3.57,3.57,0,0,0,1.57.44c.55,0,.78-.19.78-.49s-.18-.44-.86-.67c-1.21-.41-1.68-1.07-1.67-1.76,0-1.09.94-1.92,2.39-1.92a3.94,3.94,0,0,1,1.66.34l-.32,1.26a2.87,2.87,0,0,0-1.27-.34c-.44,0-.7.18-.7.48s.23.42.95.67c1.12.38,1.58.95,1.6,1.81,0,1.09-.86,1.9-2.54,1.9A4.14,4.14,0,0,1,20.62,8Z"/><path class="cls-1" d="M32,5.25a2.94,2.94,0,0,1-3.09,3.13,2.87,2.87,0,0,1-3-3A2.93,2.93,0,0,1,29,2.25,2.85,2.85,0,0,1,32,5.25Zm-4.25.06c0,1,.42,1.76,1.2,1.76s1.16-.71,1.16-1.76c0-.87-.34-1.76-1.16-1.76S27.71,4.45,27.71,5.31Z"/><path class="cls-1" d="M33.08,4.26c0-.73,0-1.35,0-1.87h1.58l.08.8h0a2.15,2.15,0,0,1,1.81-.94c1.2,0,2.1.79,2.1,2.52V8.25H36.83V5c0-.76-.26-1.27-.92-1.27a1,1,0,0,0-.92.68,1.26,1.26,0,0,0-.07.46V8.25H33.08Z"/><path class="cls-1" d="M40,7.28a1.06,1.06,0,0,1,1.08-1.12,1,1,0,0,1,1.07,1.12,1.07,1.07,0,1,1-2.15,0Z"/><path class="cls-1" d="M47.92,6.33a1.48,1.48,0,0,0-.1-.57,1.21,1.21,0,0,0-.35-.46,2.64,2.64,0,0,0-.66-.38,8.82,8.82,0,0,0-1-.34,9.55,9.55,0,0,1-1.06-.36,3.31,3.31,0,0,1-.8-.46,1.89,1.89,0,0,1-.51-.61,1.72,1.72,0,0,1-.18-.81,1.75,1.75,0,0,1,.19-.82A1.9,1.9,0,0,1,44,.88a2.62,2.62,0,0,1,.83-.41A3.6,3.6,0,0,1,45.85.32,3.21,3.21,0,0,1,47,.5a2.56,2.56,0,0,1,.85.5,2.2,2.2,0,0,1,.54.74,2.22,2.22,0,0,1,.19.91h-.67A1.83,1.83,0,0,0,47.73,2a1.56,1.56,0,0,0-.39-.56A1.85,1.85,0,0,0,46.71,1a2.54,2.54,0,0,0-.86-.13A2.84,2.84,0,0,0,45,1a1.85,1.85,0,0,0-.61.31,1.32,1.32,0,0,0-.37.46,1.28,1.28,0,0,0-.13.56,1.26,1.26,0,0,0,.1.52,1.21,1.21,0,0,0,.35.44,2.75,2.75,0,0,0,.65.38A7,7,0,0,0,46,4a9.15,9.15,0,0,1,1.1.38,3.23,3.23,0,0,1,.82.48,1.87,1.87,0,0,1,.5.64,1.9,1.9,0,0,1,.17.83,1.8,1.8,0,0,1-.2.86,1.89,1.89,0,0,1-.56.64,2.61,2.61,0,0,1-.85.4,4,4,0,0,1-1.07.14,4.26,4.26,0,0,1-.7-.06,3.71,3.71,0,0,1-.68-.18,2.92,2.92,0,0,1-.61-.31,2.11,2.11,0,0,1-.49-.45,2.09,2.09,0,0,1-.33-.6A2.19,2.19,0,0,1,43,6h.66a1.6,1.6,0,0,0,.2.83,1.67,1.67,0,0,0,.53.55,2.26,2.26,0,0,0,.73.3,3.54,3.54,0,0,0,.81.09,3.09,3.09,0,0,0,.83-.1,2,2,0,0,0,.64-.3,1.34,1.34,0,0,0,.41-.46A1.28,1.28,0,0,0,47.92,6.33Z"/><path class="cls-1" d="M49.5,5.26a3.55,3.55,0,0,1,.19-1.17,2.76,2.76,0,0,1,.52-.93A2.4,2.4,0,0,1,51,2.55a2.52,2.52,0,0,1,1.06-.22,2.56,2.56,0,0,1,1.08.22,2.4,2.4,0,0,1,.82.61,2.74,2.74,0,0,1,.52.93,3.61,3.61,0,0,1,.18,1.17v.18a3.62,3.62,0,0,1-.18,1.17,2.74,2.74,0,0,1-.52.93,2.36,2.36,0,0,1-.82.61,2.73,2.73,0,0,1-2.14,0,2.38,2.38,0,0,1-.82-.61,2.74,2.74,0,0,1-.53-.93,3.56,3.56,0,0,1-.19-1.17Zm.64.18a3.17,3.17,0,0,0,.13.91,2.35,2.35,0,0,0,.38.76,1.84,1.84,0,0,0,.61.52,1.76,1.76,0,0,0,.84.19,1.75,1.75,0,0,0,.83-.19,1.84,1.84,0,0,0,.61-.52,2.35,2.35,0,0,0,.38-.76,3.17,3.17,0,0,0,.13-.91V5.26a3.13,3.13,0,0,0-.13-.9,2.38,2.38,0,0,0-.38-.76,1.85,1.85,0,0,0-.61-.52,1.76,1.76,0,0,0-.84-.2,1.72,1.72,0,0,0-.83.2,1.87,1.87,0,0,0-.61.52,2.38,2.38,0,0,0-.38.76,3.13,3.13,0,0,0-.13.9Z"/><path class="cls-1" d="M56.74,8.25h-.64V0h.64Z"/><path class="cls-1" d="M62.22,7.51a1.86,1.86,0,0,1-.73.62,2.54,2.54,0,0,1-1.13.22,2.36,2.36,0,0,1-.78-.12,1.49,1.49,0,0,1-.6-.38,1.77,1.77,0,0,1-.39-.68,3.28,3.28,0,0,1-.14-1V2.44h.64V6.17a2.42,2.42,0,0,0,.11.78,1.32,1.32,0,0,0,.29.5,1,1,0,0,0,.43.27,1.67,1.67,0,0,0,.52.08,2.43,2.43,0,0,0,.68-.09,1.62,1.62,0,0,0,.51-.24A1.42,1.42,0,0,0,62,7.11a1.82,1.82,0,0,0,.22-.46V2.44h.64V8.25h-.62Z"/><path class="cls-1" d="M65.52,1V2.44h1.2V3h-1.2V6.84a1.61,1.61,0,0,0,.06.49.73.73,0,0,0,.17.29.52.52,0,0,0,.24.14,1.16,1.16,0,0,0,.29,0l.28,0,.24,0,0,.53a1.41,1.41,0,0,1-.31.07l-.38,0a1.72,1.72,0,0,1-.51-.07.91.91,0,0,1-.4-.25A1.21,1.21,0,0,1,65,7.57a2.42,2.42,0,0,1-.09-.73V3H63.81V2.44h1.07V1Z"/><path class="cls-1" d="M68,.76a.44.44,0,0,1,.12-.31.42.42,0,0,1,.32-.13.42.42,0,0,1,.45.44.42.42,0,0,1-.12.31.43.43,0,0,1-.33.12.43.43,0,0,1-.32-.12A.43.43,0,0,1,68,.76Zm.76,7.49h-.64V2.44h.64Z"/><path class="cls-1" d="M70.17,5.26a3.55,3.55,0,0,1,.19-1.17,2.76,2.76,0,0,1,.52-.93,2.41,2.41,0,0,1,.82-.61,2.51,2.51,0,0,1,1.06-.22,2.56,2.56,0,0,1,1.08.22,2.41,2.41,0,0,1,.82.61,2.76,2.76,0,0,1,.52.93,3.6,3.6,0,0,1,.18,1.17v.18a3.61,3.61,0,0,1-.18,1.17,2.76,2.76,0,0,1-.52.93,2.37,2.37,0,0,1-.82.61,2.73,2.73,0,0,1-2.14,0,2.39,2.39,0,0,1-.82-.61,2.74,2.74,0,0,1-.53-.93,3.56,3.56,0,0,1-.19-1.17Zm.64.18a3.17,3.17,0,0,0,.13.91,2.34,2.34,0,0,0,.38.76,1.84,1.84,0,0,0,.61.52,1.91,1.91,0,0,0,1.67,0,1.83,1.83,0,0,0,.61-.52,2.35,2.35,0,0,0,.38-.76,3.17,3.17,0,0,0,.13-.91V5.26a3.13,3.13,0,0,0-.13-.9,2.38,2.38,0,0,0-.38-.76,1.84,1.84,0,0,0-.61-.52,1.76,1.76,0,0,0-.84-.2,1.72,1.72,0,0,0-.83.2,1.87,1.87,0,0,0-.61.52,2.37,2.37,0,0,0-.38.76,3.13,3.13,0,0,0-.13.9Z"/><path class="cls-1" d="M77.3,2.44l0,1A2.66,2.66,0,0,1,77.67,3a2.1,2.1,0,0,1,1-.57,2.19,2.19,0,0,1,.59-.08,2.38,2.38,0,0,1,.78.12,1.4,1.4,0,0,1,.58.38,1.7,1.7,0,0,1,.37.66,3.34,3.34,0,0,1,.13,1V8.25h-.64V4.46a2.49,2.49,0,0,0-.1-.75,1.21,1.21,0,0,0-.27-.48A1,1,0,0,0,79.63,3a1.94,1.94,0,0,0-.57-.08,1.61,1.61,0,0,0-.62.12,1.71,1.71,0,0,0-.49.31,2,2,0,0,0-.37.44,2.58,2.58,0,0,0-.25.51v4h-.64V2.44Z"/><path class="cls-1" d="M86.21,6.77a1.08,1.08,0,0,0-.06-.36.85.85,0,0,0-.23-.33,1.75,1.75,0,0,0-.47-.3,3.91,3.91,0,0,0-.79-.24,6.92,6.92,0,0,1-.86-.24A2.5,2.5,0,0,1,83.16,5a1.28,1.28,0,0,1-.39-.45,1.34,1.34,0,0,1-.13-.62,1.38,1.38,0,0,1,.14-.61,1.48,1.48,0,0,1,.41-.5,2,2,0,0,1,.64-.34,2.69,2.69,0,0,1,.85-.13,2.88,2.88,0,0,1,.91.13,2,2,0,0,1,.68.37,1.54,1.54,0,0,1,.42.55,1.61,1.61,0,0,1,.15.69h-.64a1,1,0,0,0-.1-.44,1.12,1.12,0,0,0-.29-.38A1.5,1.5,0,0,0,85.31,3a1.89,1.89,0,0,0-.64-.1A2,2,0,0,0,84,3a1.3,1.3,0,0,0-.44.24.89.89,0,0,0-.25.32.91.91,0,0,0-.08.36,1,1,0,0,0,.06.35.7.7,0,0,0,.23.29,1.72,1.72,0,0,0,.47.25,6,6,0,0,0,.79.23,6.66,6.66,0,0,1,.91.27,2.33,2.33,0,0,1,.63.36,1.32,1.32,0,0,1,.37.47,1.46,1.46,0,0,1,.12.61,1.43,1.43,0,0,1-.15.66,1.46,1.46,0,0,1-.43.51,2.1,2.1,0,0,1-.68.33,3.41,3.41,0,0,1-1.86,0A2.19,2.19,0,0,1,83,7.83a1.62,1.62,0,0,1-.44-.56,1.52,1.52,0,0,1-.15-.65h.64a1.12,1.12,0,0,0,.18.57,1.2,1.2,0,0,0,.39.37,1.65,1.65,0,0,0,.51.2,2.73,2.73,0,0,0,.56.06,2.19,2.19,0,0,0,.64-.09,1.49,1.49,0,0,0,.47-.23,1,1,0,0,0,.29-.33A.84.84,0,0,0,86.21,6.77Z"/></g></g></svg>
