<?xml version="1.0" encoding="utf-8"?>
<!-- Generator: Adobe Illustrator 21.0.1, SVG Export Plug-In . SVG Version: 6.00 Build 0)  -->
<svg version="1.1" id="Layer_1" xmlns="http://www.w3.org/2000/svg" xmlns:xlink="http://www.w3.org/1999/xlink" x="0px" y="0px"
	 viewBox="0 0 155 33" style="enable-background:new 0 0 155 33;" xml:space="preserve">
<style type="text/css">
	.st0{fill:#FFFFFF;}
	.st1{fill:#FFFFFF;stroke:#FFFFFF;stroke-miterlimit:10;}
</style>
<g>
	<path class="st0" d="M15.2,22.8c-1.1,0.4-3.2,0.9-5.3,0.9c-2.9,0-5-0.7-6.4-2.1c-1.5-1.4-2.2-3.4-2.2-5.7c0-5.2,3.8-8.2,9-8.2
		c2,0,3.6,0.4,4.4,0.8L14,11.3c-0.9-0.4-1.9-0.7-3.7-0.7c-3,0-5.2,1.7-5.2,5.1c0,3.3,2,5.2,5,5.2c0.8,0,1.5-0.1,1.8-0.2v-3.3H9.4
		v-2.8h5.9V22.8z"/>
	<path class="st0" d="M24.6,23.6l-0.2-1.1h-0.1c-0.7,0.9-1.9,1.4-3.3,1.4c-2.3,0-3.7-1.7-3.7-3.5c0-3,2.7-4.4,6.7-4.4v-0.2
		c0-0.6-0.3-1.5-2.1-1.5c-1.2,0-2.4,0.4-3.2,0.9l-0.7-2.3c0.8-0.4,2.4-1,4.4-1c3.8,0,5,2.2,5,4.9v4c0,1.1,0,2.2,0.2,2.8H24.6z
		 M24.2,18.2c-1.9,0-3.3,0.4-3.3,1.8c0,0.9,0.6,1.4,1.4,1.4c0.9,0,1.6-0.6,1.8-1.3c0-0.2,0.1-0.4,0.1-0.6V18.2z"/>
	<path class="st0" d="M30.5,15.9c0-1.7,0-2.8-0.1-3.8h3.1l0.1,2.1h0.1c0.6-1.7,2-2.4,3.1-2.4c0.3,0,0.5,0,0.7,0v3.3
		c-0.3,0-0.6-0.1-1-0.1c-1.3,0-2.2,0.7-2.4,1.8c0,0.2-0.1,0.5-0.1,0.8v5.8h-3.6V15.9z"/>
	<path class="st0" d="M41.9,19c0.1,1.5,1.6,2.2,3.2,2.2c1.2,0,2.2-0.2,3.2-0.5l0.5,2.4c-1.2,0.5-2.6,0.7-4.1,0.7
		c-3.9,0-6.1-2.2-6.1-5.8c0-2.9,1.8-6.1,5.8-6.1c3.7,0,5.1,2.9,5.1,5.7c0,0.6-0.1,1.1-0.1,1.4H41.9z M46.1,16.5c0-0.9-0.4-2.3-2-2.3
		c-1.5,0-2.1,1.4-2.2,2.3H46.1z"/>
	<path class="st0" d="M55.5,8.8v3.3h2.6v2.6h-2.6v4.1c0,1.4,0.3,2,1.4,2c0.4,0,0.8,0,1.1-0.1l0,2.7c-0.5,0.2-1.3,0.3-2.3,0.3
		c-1.1,0-2.1-0.4-2.7-1c-0.7-0.7-1-1.8-1-3.4v-4.7h-1.5v-2.6H52V9.6L55.5,8.8z"/>
	<path class="st0" d="M60.1,6.9h3.6v6.5h0c0.4-0.5,0.8-0.9,1.4-1.2c0.5-0.3,1.2-0.4,1.8-0.4c2.3,0,4,1.6,4,5v6.7h-3.6v-6.3
		c0-1.5-0.5-2.5-1.8-2.5c-0.9,0-1.5,0.6-1.8,1.2c-0.1,0.2-0.1,0.5-0.1,0.8v6.8h-3.6V6.9z"/>
</g>
<g>
	<path class="st0" d="M97.4,17.5c-0.1-2.2-0.3-4.8-0.2-6.8h-0.1c-0.5,1.8-1.2,3.8-2,6l-2.8,7.7h-1.5l-2.6-7.5
		c-0.7-2.2-1.4-4.3-1.8-6.1h0c0,2-0.2,4.6-0.3,7l-0.4,6.8h-1.9l1.1-15.8h2.6l2.7,7.6c0.7,1.9,1.2,3.7,1.6,5.3h0.1
		c0.4-1.6,1-3.3,1.7-5.3l2.8-7.6h2.6l1,15.8h-2L97.4,17.5z"/>
	<path class="st0" d="M109.3,24.5l-0.2-1.4h-0.1c-0.6,0.9-1.8,1.7-3.5,1.7c-2.3,0-3.5-1.6-3.5-3.3c0-2.7,2.4-4.2,6.8-4.2V17
		c0-0.9-0.3-2.6-2.6-2.6c-1.1,0-2.2,0.3-2.9,0.8l-0.5-1.4c0.9-0.6,2.3-1,3.7-1c3.5,0,4.3,2.4,4.3,4.6v4.2c0,1,0,1.9,0.2,2.7H109.3z
		 M109,18.7c-2.2,0-4.8,0.4-4.8,2.6c0,1.3,0.9,2,1.9,2c1.5,0,2.4-0.9,2.7-1.9c0.1-0.2,0.1-0.4,0.1-0.7V18.7z"/>
	<path class="st0" d="M116.7,9.9v3.3h2.9v1.6h-2.9v6.1c0,1.4,0.4,2.2,1.5,2.2c0.5,0,0.9-0.1,1.2-0.1l0.1,1.5c-0.4,0.2-1,0.3-1.8,0.3
		c-1,0-1.7-0.3-2.2-0.9c-0.6-0.6-0.8-1.6-0.8-2.9v-6.2h-1.8v-1.6h1.8v-2.7L116.7,9.9z"/>
	<path class="st0" d="M121.7,22.4c0.6,0.4,1.7,0.8,2.7,0.8c1.5,0,2.2-0.7,2.2-1.7c0-1-0.6-1.5-2.1-2.1c-2-0.7-3-1.8-3-3.2
		c0-1.8,1.5-3.3,3.9-3.3c1.1,0,2.2,0.3,2.8,0.7l-0.5,1.5c-0.4-0.3-1.3-0.7-2.3-0.7c-1.2,0-1.9,0.7-1.9,1.5c0,0.9,0.7,1.4,2.2,1.9
		c2,0.7,3,1.7,3,3.4c0,2-1.5,3.4-4.2,3.4c-1.2,0-2.4-0.3-3.2-0.8L121.7,22.4z"/>
	<path class="st0" d="M141.5,18.7c0,4.2-2.9,6-5.6,6c-3.1,0-5.4-2.2-5.4-5.8c0-3.8,2.5-6,5.6-6C139.3,12.9,141.5,15.3,141.5,18.7z
		 M132.5,18.8c0,2.5,1.4,4.4,3.4,4.4c2,0,3.4-1.8,3.4-4.4c0-1.9-1-4.4-3.4-4.4C133.6,14.4,132.5,16.7,132.5,18.8z"/>
	<path class="st0" d="M144.1,16.2c0-1.2,0-2.1-0.1-3.1h1.8l0.1,1.9h0c0.6-1.1,1.9-2.1,3.7-2.1c1.6,0,4,0.9,4,4.8v6.8h-2.1v-6.5
		c0-1.8-0.7-3.3-2.6-3.3c-1.4,0-2.4,1-2.8,2.1c-0.1,0.3-0.1,0.6-0.1,1v6.8h-2.1V16.2z"/>
</g>
<line class="st1" x1="77.8" y1="2" x2="77.8" y2="31.5"/>
<g>
</g>
<g>
</g>
<g>
</g>
<g>
</g>
<g>
</g>
<g>
</g>
</svg>
